<svg width="384" height="153" viewBox="0 0 384 153" fill="none" xmlns="http://www.w3.org/2000/svg">
<rect width="384" height="153" fill="white"/>
<path fill-rule="evenodd" clip-rule="evenodd" d="M240.315 40V46.491H231.877V40H240.315ZM231.876 78.512V49.736H240.314V78.512H231.876ZM223.668 50.277H228.699H228.7V55.47H223.669V69.586C223.669 71.858 224.804 72.453 226.32 72.453C227.239 72.453 228.428 72.345 228.862 72.291V78.944C227.78 79.053 225.292 79.269 223.453 79.269C216.258 79.269 215.23 74.78 215.23 70.615V55.469H211.12V50.277H215.23V41.947H223.668V50.277ZM121.354 48.979C126.817 48.979 131.523 50.981 134.282 56.011L127.79 59.419C126.276 56.173 123.679 55.47 122.381 55.47C117.567 55.47 115.836 59.202 115.836 64.124C115.836 69.047 117.891 72.779 122.381 72.779C124.977 72.779 127.032 71.806 128.385 68.56L134.443 71.643C131.847 76.241 127.141 79.27 121.624 79.27C113.024 79.27 107.074 73.806 107.074 64.124C107.074 54.604 113.403 48.979 121.354 48.979ZM121.354 82.084C126.817 82.084 131.523 84.086 134.282 89.116L127.79 92.525C126.276 89.279 123.679 88.576 122.381 88.576C117.567 88.576 115.836 92.308 115.836 97.231C115.836 102.153 117.891 105.885 122.381 105.885C124.977 105.885 127.032 104.911 128.385 101.665L134.443 104.748C131.847 109.346 127.141 112.375 121.624 112.375C113.024 112.375 107.074 106.912 107.074 97.23C107.074 87.709 113.403 82.084 121.354 82.084ZM149.746 82.084C140.767 82.084 134.439 87.547 134.439 97.23C134.439 106.912 140.767 112.375 149.746 112.375C158.725 112.375 165.054 106.912 165.054 97.23C165.054 87.548 158.725 82.084 149.746 82.084ZM149.746 88.575C154.56 88.575 156.616 92.307 156.616 96.905C156.616 102.152 154.56 105.884 149.746 105.884C144.932 105.884 142.877 102.152 142.877 97.23C142.877 92.308 144.932 88.575 149.746 88.575ZM166.783 111.617H175.221V93.714C175.221 91.118 176.303 88.9 179.71 88.9C182.956 88.9 183.821 90.793 183.821 93.606V111.618H192.259V93.93C192.259 91.009 193.719 88.9 196.532 88.9C199.723 88.9 200.859 90.739 200.859 94.796V111.617H209.297V89.657C209.297 83.058 203.239 82.084 200.426 82.084C197.072 82.084 193.935 83.112 191.177 85.924C189.283 83.382 186.85 82.084 183.55 82.084C180.954 82.084 177.384 82.841 175.22 85.384V82.842H166.782V111.617H166.783ZM220.435 111.617H211.997H211.996V82.842H220.434V85.384C222.598 82.841 226.168 82.084 228.764 82.084C232.064 82.084 234.498 83.382 236.391 85.924C239.15 83.112 242.286 82.084 245.64 82.084C248.452 82.084 254.511 83.058 254.511 89.657V111.617H246.073V94.796C246.073 90.739 244.936 88.9 241.745 88.9C238.933 88.9 237.473 91.009 237.473 93.93V111.618H229.035V93.606C229.035 90.793 228.17 88.9 224.924 88.9C221.517 88.9 220.435 91.118 220.435 93.714V111.617ZM256.236 97.23C256.236 87.547 262.565 82.084 271.544 82.084C280.523 82.084 286.852 87.548 286.852 97.23C286.852 106.912 280.523 112.375 271.544 112.375C262.564 112.375 256.236 106.912 256.236 97.23ZM278.413 96.905C278.413 92.307 276.357 88.575 271.544 88.575C266.73 88.575 264.674 92.308 264.674 97.23C264.674 102.152 266.73 105.884 271.544 105.884C276.357 105.884 278.413 102.152 278.413 96.905ZM297.56 111.617H289.122H289.121V82.842H297.559V85.384C299.723 82.841 303.293 82.084 305.889 82.084C312.704 82.084 314.598 86.033 314.598 90.36V111.618H306.16V93.606C306.16 90.793 305.295 88.9 302.05 88.9C298.642 88.9 297.56 91.118 297.56 93.714V111.617ZM342.774 86.25C338.879 83.654 334.499 82.085 330.063 82.085C324.22 82.085 317.892 84.898 317.892 92.146C317.892 98.2943 324.055 99.4536 328.967 100.378C332.223 100.99 334.93 101.499 334.93 103.289C334.93 105.886 331.74 106.21 330.332 106.21C326.492 106.21 323.842 104.642 321.245 102.153L315.998 106.696C320.218 110.591 323.787 112.376 330.062 112.376C336.335 112.376 343.043 109.671 343.043 102.099C343.043 95.6774 336.979 94.5307 332.086 93.6055C328.778 92.9799 326.005 92.4556 326.005 90.47C326.005 89.01 327.519 88.253 329.628 88.253C332.279 88.253 335.903 89.335 337.579 91.336L342.774 86.25ZM136.34 78.512H144.778V61.852C144.778 58.661 146.779 57.795 151.81 57.2L152.729 57.092L152.675 49.628C149.7 49.845 146.617 50.926 144.778 52.657V49.736H136.34V78.512ZM181.386 65.855C181.332 56.984 177.762 48.979 167.268 48.979C158.505 48.979 153.15 54.821 153.15 64.99C153.15 73.103 158.343 79.27 167.268 79.27C173.705 79.27 178.302 76.728 181.223 71.319L174.894 68.019C172.46 71.481 170.999 73.103 167.862 73.103C165.158 73.103 161.642 71.372 161.588 65.855H181.386ZM161.481 60.663C161.859 56.876 164.78 55.146 167.214 55.146C169.648 55.146 172.677 56.444 172.947 60.663H161.481ZM196.036 48.979C203.879 48.979 208.801 50.818 208.855 57.309V72.509C208.855 74.511 208.909 76.728 209.612 78.513H201.823C201.499 77.539 201.336 76.512 201.282 75.538H201.174C199.768 77.81 195.549 79.27 192.52 79.27C187.003 79.27 182.892 76.241 182.892 70.724C182.892 63.8 188.464 61.366 197.659 60.068L200.742 59.635V57.255C200.742 55.091 199.011 54.172 196.739 54.172C194.034 54.172 192.737 55.145 192.304 58.012H184.19C184.461 49.736 192.141 48.979 196.036 48.979ZM194.954 73.103C198.254 73.103 200.742 70.885 200.742 66.504V64.503L195.062 66.126C192.952 66.721 191.005 67.532 191.005 69.858C191.005 72.129 192.898 73.103 194.954 73.103ZM260.162 78.512H251.67L241.934 49.736H250.966L255.944 70.074H256.051L261.028 49.736H270.007L260.162 78.512ZM283.139 48.979C293.632 48.979 297.202 56.984 297.256 65.855H277.46C277.513 71.372 281.03 73.103 283.734 73.103C286.87 73.103 288.331 71.481 290.765 68.019L297.094 71.319C294.173 76.728 289.576 79.27 283.139 79.27C274.213 79.27 269.022 73.103 269.022 64.99C269.022 54.821 274.375 48.979 283.139 48.979ZM283.084 55.146C280.65 55.146 277.73 56.876 277.351 60.663H288.818C288.548 56.444 285.518 55.146 283.084 55.146ZM71.602 48.495C62.92 48.495 55.28 51.708 49.376 57.698C43.299 63.863 40 71.85 40 80.185C40 88.606 43.212 96.42 49.29 102.498C55.367 108.575 63.268 111.874 71.602 111.874C79.936 111.874 88.011 108.575 94.262 102.411C100.166 96.594 103.291 88.867 103.291 80.185C103.291 71.59 100.166 63.776 94.175 57.785C88.098 51.708 80.284 48.495 71.602 48.495ZM71.689 54.226C78.808 54.226 85.146 56.917 90.095 61.866C94.956 66.728 97.561 73.153 97.561 80.185C97.561 87.304 95.043 93.555 90.181 98.331C85.058 103.366 78.46 106.058 71.688 106.058C64.829 106.058 58.404 103.367 53.456 98.418C48.507 93.468 45.729 86.957 45.729 80.185C45.729 73.326 48.507 66.815 53.456 61.779C58.318 56.831 64.57 54.226 71.689 54.226ZM71.28 74.919C69.49 71.655 66.436 70.356 62.891 70.356C57.731 70.356 53.624 74.006 53.624 80.185C53.624 86.468 57.485 90.014 63.067 90.014C66.648 90.014 69.701 88.048 71.386 85.065L67.454 83.064C66.576 85.17 65.243 85.802 63.558 85.802C60.644 85.802 59.311 83.38 59.311 80.186C59.311 76.992 60.434 74.569 63.558 74.569C64.4 74.569 66.085 75.026 67.068 77.131L71.28 74.919ZM81.173 70.356C84.718 70.356 87.771 71.655 89.562 74.919L85.35 77.131C84.366 75.026 82.681 74.569 81.839 74.569C78.715 74.569 77.591 76.992 77.591 80.186C77.591 83.38 78.926 85.802 81.839 85.802C83.524 85.802 84.858 85.17 85.735 83.064L89.667 85.065C87.982 88.048 84.929 90.014 81.348 90.014C75.767 90.014 71.905 86.468 71.905 80.185C71.905 74.006 76.013 70.356 81.173 70.356Z" fill="black"/>
</svg>
